<svg id="Layer_1" enable-background="new 0 0 128 128" height="512" viewBox="0 0 128 128" width="512" xmlns="http://www.w3.org/2000/svg"><g><g><g><path d="m87.149 49.296 3.323 1.126c1.748.592 3.146 1.99 3.738 3.738l1.126 3.323c.138.406.519.679.947.679s.81-.273.947-.679l1.125-3.323c.592-1.748 1.99-3.146 3.738-3.738l3.323-1.126c.406-.138.679-.519.679-.947s-.273-.81-.679-.947l-3.323-1.125c-1.749-.592-3.146-1.99-3.738-3.738l-1.125-3.323c-.138-.406-.519-.679-.947-.679s-.81.273-.947.679l-1.126 3.323c-.592 1.749-1.99 3.146-3.738 3.738l-3.323 1.125c-.406.138-.679.519-.679.947s.273.809.679.947z" fill="#e6e7e8"/></g><g><path d="m28.772 47.626 2.292-.777c.406-.138.679-.519.679-.947s-.273-.81-.679-.947l-2.292-.777c-1.115-.377-2.007-1.269-2.385-2.384l-.776-2.292c-.138-.406-.519-.679-.947-.679s-.81.273-.947.679l-.777 2.292c-.378 1.115-1.27 2.007-2.384 2.384l-2.293.777c-.406.138-.679.519-.679.947s.273.81.679.947l2.293.777c1.115.377 2.006 1.269 2.384 2.384l.777 2.293c.138.406.519.679.947.679s.81-.273.947-.679l.776-2.293c.378-1.115 1.27-2.007 2.385-2.384z" fill="#e6e7e8"/></g><g><path d="m22.912 62.807-1.8-.61c-.814-.275-1.464-.926-1.739-1.739l-.61-1.801c-.138-.406-.519-.679-.947-.679s-.81.273-.947.679l-.61 1.801c-.275.813-.926 1.463-1.739 1.739l-1.801.61c-.406.138-.679.519-.679.947 0 .429.273.81.679.947l1.801.61c.813.275 1.463.925 1.739 1.738l.61 1.801c.138.406.519.679.947.679s.81-.273.947-.679l.61-1.801c.275-.813.925-1.463 1.738-1.738l1.801-.61c.406-.138.679-.519.679-.947s-.274-.809-.679-.947z" fill="#e6e7e8"/></g><g><path d="m118.561 95.415c-1.105-1.259-2.803-1.915-4.657-1.791-2.146.14-4.147 1.296-5.352 3.094-1.093 1.63-1.609 3.597-1.855 5.117-.346-.323-.722-.632-1.126-.927.697-.549 1.154-1.391 1.154-2.345 0-1.651-1.344-2.995-2.995-2.995h-.918c-1.074-1.91-3.169-3.348-5.726-4.016.179-.422.278-.886.278-1.372 0-1.74-2.221-3.677-2.902-4.229-.367-.298-.893-.298-1.26 0-.681.552-2.902 2.489-2.902 4.229 0 .486.099.95.278 1.372-2.557.668-4.652 2.107-5.726 4.016h-.918c-1.651 0-2.995 1.344-2.995 2.995 0 .994.492 1.87 1.24 2.415-.934.382-1.891.619-3.1.575-1.204-.038-2.427-.479-3.686-1.073 1.602-1.359 3.064-2.836 4.159-4.561 2.927-4.612 3.503-8.93 3.278-12.241 3.882-1.736 7.065-4.851 8.768-8.768 2.145-4.936 1.552-10.408-1.625-15.014-3.273-4.744-9.336-7.23-15.218-8.525 3.184-3.611 5.133-8.335 5.133-13.516v-4.271c0-9.515-6.53-17.511-15.337-19.803-.014-.02-.032-.047-.049-.071v-1.437c0-2.81-2.286-5.096-5.096-5.096-.576 0-1.122.117-1.639.294-3.046-1.732-6.973-2.709-11.522-1.004-5.259 1.969-7.734 7.734-10.355 13.837-.765 1.781-1.555 3.622-2.431 5.407-2.281 4.651-6.207 6.979-6.247 7.002-.349.204-.542.598-.488.998s.343.729.734.833c.171.046 2.323.601 5.178.601 1.91 0 4.132-.262 6.287-1.078v3.788c0 5.182 1.95 9.906 5.134 13.518-5.887 1.296-11.947 3.782-15.219 8.523-3.177 4.606-3.77 10.079-1.625 15.014 1.587 3.652 4.459 6.609 7.986 8.4-1.111 4.103-1.799 10.051.152 17.133 4.449 16.146 25.643 25.503 26.543 25.894.128.056.264.083.397.083.27 0 .535-.109.729-.314.289-.307.354-.762.164-1.138-.041-.08-4.025-8.109.167-14.098 1.512-2.16 3.573-3.937 5.733-5.587.79.603 1.696 1.365 2.684 2.197 3.456 2.911 8.078 6.778 13.63 8.963-1.074.862-2.258 1.948-3.063 3.066h-.705c-1.905 0-3.455 1.55-3.455 3.456s1.55 3.456 3.455 3.456h24.401c1.905 0 3.455-1.55 3.455-3.456s-1.55-3.456-3.455-3.456h-.705c-.802-1.114-1.98-2.195-3.05-3.056 1.388-.57 2.608-1.264 3.633-2.057.05.515.164 1.018.391 1.498 1.095 2.317 3.887 3.27 4.005 3.309.105.035.211.052.316.052.419 0 .809-.266.949-.685.174-.524-.109-1.09-.633-1.265-.021-.007-2.107-.738-2.829-2.266-.33-.698-.326-1.464.011-2.341.267-.695 1.733-1.506 3.15-2.291 1.33-.736 2.837-1.57 4.156-2.669 2.611-2.176 4.298-5.108 4.511-7.845.138-1.748-.338-3.297-1.375-4.478zm-.617 4.323c-.169 2.177-1.625 4.654-3.797 6.464-1.173.978-2.592 1.763-3.844 2.456-.306.169-.601.334-.889.499.083-.43.132-.866.132-1.309 0-1.342-.38-2.627-1.068-3.814.034-.858.258-3.998 1.736-6.203.861-1.285 2.29-2.112 3.821-2.212 1.231-.079 2.332.326 3.024 1.114.849.97.95 2.169.885 3.005z" fill="#e6e7e8"/></g></g><g><g><g><g><path d="m85.149 56.465c-3.412-4.946-10.164-7.322-16.383-8.455-3.489 3.295-8.183 5.329-13.361 5.329-5.178 0-9.872-2.034-13.361-5.329-6.219 1.133-12.971 3.509-16.383 8.455-5.983 8.673-1.393 18.664 6.74 22.304-1.194 3.976-2.103 10.092-.086 17.409 4.373 15.869 25.977 25.241 25.977 25.241s-4.344-8.575.241-15.123c4.299-6.141 12.451-9.044 16.176-14.913 2.989-4.709 3.389-9.115 3.048-12.336 8.535-3.384 13.534-13.678 7.392-22.582z" fill="#d4fbff"/><path d="m74.823 79.9c.184 3.125-.383 7.177-3.116 11.484-3.724 5.869-11.876 8.772-16.176 14.913-3.268 4.668-2.001 10.349-1.003 13.237 2.27 1.236 3.762 1.886 3.762 1.886s-4.344-8.575.241-15.123c4.299-6.141 12.451-9.044 16.176-14.913 2.989-4.709 3.389-9.115 3.048-12.336-.938.372-1.918.658-2.932.852z" fill="#fff"/></g><g><g><path d="m51.309 8.274c0-1.651.983-3.066 2.39-3.714-2.889-1.751-6.679-2.813-11.105-1.155-6.317 2.366-8.399 10.917-12.239 18.747-2.454 5.005-6.642 7.426-6.642 7.426s6.79 1.799 12.263-1.068c.485-8.869 6.888-16.152 15.332-17.964v-2.272z" fill="#0089ef"/></g><path d="m55.405 10.102c1.406 0 2.775.156 4.096.439v-2.267c0-2.262-1.834-4.096-4.096-4.096s-4.096 1.834-4.096 4.096v2.268c1.321-.283 2.689-.44 4.096-.44z" fill="#fa759e"/><path d="m35.922 29.585v4.271c0 10.76 8.723 19.483 19.483 19.483 10.76 0 19.483-8.723 19.483-19.483v-4.271c0-10.76-8.723-19.483-19.483-19.483-10.76 0-19.483 8.723-19.483 19.483z" fill="#fff"/></g></g><g fill="#ffd7e5"><path d="m92.283 35.535 1.126 3.323c.696 2.055 2.31 3.668 4.364 4.364l3.323 1.126-3.323 1.126c-2.055.696-3.668 2.31-4.364 4.364l-1.126 3.323-1.126-3.323c-.696-2.055-2.31-3.668-4.364-4.364l-3.323-1.126 3.323-1.126c2.055-.696 3.668-2.31 4.364-4.364z"/><path d="m20.663 35.821.777 2.293c.48 1.418 1.593 2.531 3.011 3.011l2.293.777-2.293.777c-1.418.48-2.531 1.593-3.011 3.011l-.777 2.293-.777-2.293c-.48-1.418-1.593-2.531-3.011-3.011l-2.293-.777 2.293-.777c1.418-.48 2.531-1.593 3.011-3.011z"/><path d="m13.815 54.979.61 1.801c.377 1.113 1.252 1.988 2.365 2.365l1.801.61-1.801.61c-1.113.377-1.988 1.252-2.365 2.365l-.61 1.801-.61-1.801c-.377-1.113-1.252-1.988-2.365-2.365l-1.801-.61 1.801-.61c1.113-.377 1.988-1.252 2.365-2.365z"/></g></g><g><path d="m88.352 88.229c.481-.059.974-.091 1.479-.091s.998.032 1.479.091c.636-.46 1.054-1.203 1.054-2.048 0-1.398-2.532-3.453-2.532-3.453s-2.532 2.055-2.532 3.453c-.001.845.417 1.588 1.052 2.048z" fill="#ffd7e5"/><path d="m98.195 92.569c-1.096-2.565-4.425-4.431-8.364-4.431s-7.268 1.866-8.364 4.431z" fill="#fa759e"/><path d="m99.103 96.559h-17.814c-2.047 1.039-3.644 2.078-6.243 1.995-3.606-.115-6.9-3.174-11.165-4.489-3.038-.937-5.949-1.178-7.733-1.225-.98-.026-1.782.765-1.782 1.745 0 .816.56 1.521 1.357 1.7 1.753.394 4.982 1.293 8.35 3.113 3.495 1.888 10.344 9.907 19.392 12.738h12.735c5.029-1.528 8.346-4.661 8.346-8.287 0-2.96-2.048-5.59-5.443-7.29z" fill="#fa759e"/><path d="m99.73 92.569h-19.797c-1.102 0-1.995.893-1.995 1.995s.893 1.995 1.995 1.995h19.797c1.102 0 1.995-.893 1.995-1.995s-.894-1.995-1.995-1.995z" fill="#ffd7e5"/><path d="m102.032 116.51h-24.401c-1.356 0-2.455 1.099-2.455 2.455s1.099 2.455 2.455 2.455h24.401c1.356 0 2.455-1.099 2.455-2.455s-1.099-2.455-2.455-2.455z" fill="#ffd7e5"/><path d="m96.2 112.136c-4.246 0-8.492 0-12.738 0-1.941 1.374-3.769 3-4.604 4.374h21.946c-.835-1.374-2.663-3-4.604-4.374z" fill="#fa759e"/><g fill="#3a2c60"><path d="m27.165 54.604c.198.222.472.335.748.335.236 0 .474-.083.664-.252 1.252-1.113 2.804-2.109 4.612-2.959.5-.235.714-.831.479-1.331s-.83-.716-1.331-.479c-1.981.932-3.694 2.033-5.089 3.274-.412.367-.45.999-.083 1.412z"/><circle cx="46.809" cy="32.585" r="1.948"/><path d="m64 30.637c-1.076 0-1.948.872-1.948 1.948s.872 1.948 1.948 1.948 1.948-.872 1.948-1.948-.872-1.948-1.948-1.948z"/><path d="m55.404 40.814c1.773 0 3.216-1.442 3.216-3.216v-1.299c0-.552-.448-1-1-1s-1 .448-1 1v1.299c0 .67-.545 1.216-1.216 1.216-.67 0-1.215-.545-1.215-1.216v-1.299c0-.552-.448-1-1-1s-1 .448-1 1v1.299c0 1.773 1.442 3.216 3.215 3.216z"/><path d="m62.664 29.824c.042 0 .083-.002.125-.008l3.815-.477c.548-.068.937-.568.868-1.116-.068-.548-.573-.938-1.116-.868l-3.815.477c-.548.068-.937.568-.868 1.116.063.506.495.876.991.876z"/><path d="m48.268 27.832-3.815-.477c-.545-.07-1.048.32-1.116.868-.069.548.32 1.048.868 1.116l3.815.477c.042.005.084.008.125.008.497 0 .928-.37.991-.876.069-.547-.32-1.047-.868-1.116z"/><path d="m58.278 43.635h-5.748c-.552 0-1 .448-1 1s.448 1 1 1h5.748c.552 0 1-.448 1-1s-.447-1-1-1z"/><path d="m83.149 45.296 3.323 1.126c1.748.592 3.146 1.99 3.738 3.738l1.126 3.323c.138.406.519.679.947.679s.81-.273.947-.679l1.125-3.323c.592-1.748 1.99-3.146 3.738-3.738l3.323-1.126c.406-.138.679-.519.679-.947s-.273-.81-.679-.947l-3.323-1.125c-1.749-.592-3.146-1.99-3.738-3.738l-1.125-3.323c-.138-.406-.519-.679-.947-.679s-.81.273-.947.679l-1.126 3.323c-.592 1.749-1.99 3.146-3.738 3.738l-3.323 1.125c-.406.138-.679.519-.679.947s.273.809.679.947zm3.965-1.126c2.334-.791 4.2-2.657 4.991-4.991l.179-.527.178.527c.791 2.334 2.657 4.2 4.991 4.991l.527.178-.527.179c-2.334.791-4.2 2.657-4.991 4.991l-.178.527-.179-.527c-.791-2.334-2.657-4.2-4.991-4.991l-.527-.179z"/><path d="m24.772 43.626 2.292-.777c.406-.138.679-.519.679-.947s-.273-.81-.679-.947l-2.292-.777c-1.115-.377-2.007-1.269-2.385-2.384l-.776-2.292c-.138-.406-.519-.679-.947-.679s-.81.273-.947.679l-.777 2.292c-.378 1.115-1.27 2.007-2.384 2.384l-2.293.777c-.406.138-.679.519-.679.947s.273.81.679.947l2.293.777c1.115.377 2.006 1.269 2.384 2.384l.777 2.293c.138.406.519.679.947.679s.81-.273.947-.679l.776-2.293c.378-1.115 1.27-2.007 2.385-2.384zm-4.108 1.3c-.586-1.349-1.677-2.439-3.025-3.025 1.349-.585 2.439-1.676 3.025-3.025.586 1.349 1.677 2.44 3.025 3.025-1.349.586-2.439 1.676-3.025 3.025z"/><path d="m18.912 58.807-1.8-.61c-.814-.275-1.464-.926-1.739-1.739l-.61-1.801c-.138-.406-.519-.679-.947-.679s-.81.273-.947.679l-.61 1.801c-.275.813-.926 1.463-1.739 1.739l-1.801.61c-.406.138-.679.519-.679.947s.273.81.679.947l1.801.61c.813.275 1.463.925 1.739 1.738l.61 1.801c.138.406.519.679.947.679s.81-.273.947-.679l.61-1.801c.275-.813.925-1.463 1.738-1.738l1.801-.61c.406-.138.679-.519.679-.947s-.274-.809-.679-.947zm-5.097 2.838c-.438-.794-1.097-1.453-1.89-1.891.793-.438 1.453-1.097 1.89-1.89.438.793 1.097 1.453 1.891 1.89-.794.438-1.453 1.097-1.891 1.891z"/><path d="m114.561 91.415c-1.105-1.259-2.8-1.915-4.657-1.79-2.146.14-4.147 1.296-5.352 3.094-1.093 1.63-1.609 3.597-1.855 5.117-.346-.323-.722-.632-1.126-.927.697-.549 1.154-1.391 1.154-2.345 0-1.651-1.344-2.995-2.995-2.995h-.918c-1.076-1.914-3.179-3.355-5.744-4.021.183-.421.296-.878.296-1.367 0-1.74-2.221-3.677-2.902-4.229-.367-.298-.893-.298-1.26 0-.681.552-2.902 2.489-2.902 4.229 0 .489.112.946.296 1.367-2.565.666-4.668 2.107-5.744 4.021h-.918c-1.651 0-2.995 1.344-2.995 2.995 0 .994.492 1.871 1.24 2.416-.932.382-1.888.619-3.1.575-1.207-.038-2.432-.481-3.693-1.077 1.603-1.359 3.071-2.832 4.166-4.558 2.928-4.613 3.501-8.928 3.275-12.239 3.883-1.735 7.068-4.851 8.771-8.77 2.145-4.936 1.552-10.408-1.625-15.014-3.273-4.744-9.336-7.231-15.217-8.526 3.183-3.611 5.132-8.335 5.132-13.515v-4.271c0-9.532-6.554-17.541-15.387-19.815v-1.496c0-2.81-2.286-5.096-5.096-5.096-.576 0-1.12.117-1.636.294-3.046-1.732-6.974-2.708-11.524-1.003-5.259 1.969-7.734 7.734-10.355 13.836-.765 1.781-1.556 3.622-2.431 5.407-2.281 4.651-6.207 6.979-6.246 7.002-.349.204-.542.598-.488.998s.343.729.733.833c.171.046 2.324.601 5.179.601 1.91 0 4.132-.262 6.287-1.081v3.792c0 5.19 1.956 9.921 5.149 13.535-1.497.326-3.003.723-4.472 1.221-.523.178-.803.745-.626 1.269.178.523.748.803 1.269.626 1.809-.613 3.678-1.07 5.514-1.421 2.843 2.55 6.392 4.312 10.323 4.958l.828 3.199 1.131-1.198 1.367 2.405 1.631-2.405 1.045 1.03.734-3.044c3.895-.657 7.412-2.411 10.234-4.941 5.889 1.124 12.139 3.393 15.277 7.943 2.818 4.084 3.328 8.73 1.438 13.081-2.056 4.731-6.56 8.147-11.753 8.917-8.175 1.21-14.9-3.473-17.172-5.304 1.529-1.623 5.611-5.522 10.792-6.996.531-.151.839-.704.688-1.235s-.704-.841-1.235-.688c-3.576 1.017-6.619 3.03-8.804 4.83-1.225-1.316-6.255-6.029-14.559-4.859-.547.077-.928.583-.851 1.129.077.547.589.932 1.129.851 7.327-1.031 11.73 3.078 12.778 4.197-1.177 1.101-1.9 1.943-2.09 2.169-.986.887-8.488 7.3-17.887 5.907-5.194-.77-9.698-4.186-11.753-8.917-1.891-4.351-1.38-8.997 1.438-13.081.313-.455.199-1.078-.255-1.391-.455-.313-1.077-.199-1.391.255-3.177 4.606-3.77 10.079-1.625 15.014 1.586 3.651 4.458 6.608 7.983 8.398-1.111 4.102-1.797 10.054.155 17.135 4.448 16.146 25.643 25.503 26.543 25.894.128.056.263.083.397.083.27 0 .535-.109.728-.314.289-.306.355-.761.166-1.137-.041-.081-4.012-8.13.167-14.099 1.512-2.16 3.575-3.936 5.735-5.585.79.603 1.695 1.364 2.682 2.196 3.456 2.911 8.078 6.779 13.63 8.963-1.074.862-2.258 1.947-3.062 3.065h-.71c-1.905 0-3.455 1.55-3.455 3.456s1.55 3.456 3.455 3.456h24.401c1.905 0 3.456-1.55 3.456-3.456s-1.55-3.456-3.456-3.456h-.704c-.802-1.114-1.98-2.195-3.05-3.056 1.388-.57 2.608-1.264 3.633-2.057.05.515.164 1.018.391 1.498 1.095 2.317 3.887 3.27 4.005 3.309.105.035.211.052.316.052.419 0 .809-.266.949-.685.174-.524-.109-1.09-.633-1.265-.021-.007-2.107-.738-2.829-2.266-.33-.698-.326-1.464.011-2.341.267-.695 1.733-1.506 3.15-2.291 1.33-.736 2.837-1.57 4.156-2.669 2.611-2.175 4.298-5.108 4.511-7.845.137-1.751-.339-3.3-1.376-4.481zm-56.06-83.141v1.088c-1.013-.155-2.041-.26-3.096-.26s-2.083.105-3.096.26v-1.088c0-1.707 1.389-3.096 3.096-3.096s3.096 1.389 3.096 3.096zm-32.293 20.719c1.51-1.271 3.568-3.387 5.046-6.4.897-1.83 1.698-3.695 2.473-5.499 2.554-5.947 4.76-11.083 9.219-12.752 3.413-1.277 6.414-.811 8.871.32-.93.924-1.507 2.202-1.507 3.613v1.495c-8.284 2.133-14.551 9.312-15.298 18.062-3.096 1.436-6.587 1.411-8.804 1.161zm32.271 19.235-3.074.962-2.885-.962-1.635 1.203.645 2.493c-8.336-1.787-14.608-9.205-14.608-18.067v-4.271c0-10.191 8.292-18.483 18.483-18.483s18.482 8.292 18.482 18.483v4.271c0 8.845-6.249 16.25-14.561 18.055l.598-2.48zm29.82 37.953c0-.417.723-1.339 1.533-2.117.81.776 1.532 1.697 1.532 2.117 0 .389-.151.741-.391 1.012-.376-.032-.756-.055-1.142-.055s-.766.022-1.142.055c-.24-.271-.39-.623-.39-1.012zm1.532 2.957c2.66 0 5.102.95 6.509 2.431h-13.018c1.408-1.481 3.849-2.431 6.509-2.431zm-9.898 4.431h1.535 16.728 1.535c.549 0 .995.446.995.995s-.446.995-.995.995h-.626-17.816-1.356c-.549 0-.995-.446-.995-.995s.446-.995.995-.995zm-22.221 12.154c-3.361 4.802-2.324 10.487-1.294 13.674-5.586-2.886-19.775-11.274-23.14-23.484-1.777-6.447-1.188-11.947-.197-15.784 1.101.405 2.246.706 3.426.88 9.123 1.35 16.573-3.968 18.898-5.87 2.067 1.691 8.187 6.087 15.937 6.087.963 0 1.953-.068 2.961-.217.872-.129 1.724-.332 2.555-.589.092 2.878-.516 6.522-2.995 10.428-1.113 1.753-2.67 3.23-4.416 4.641-.044-.024-.088-.046-.133-.07-1.6-.85-3.253-1.729-5.139-2.31-3.102-.957-6.063-1.218-8.001-1.269-.739-.024-1.445.255-1.978.774-.536.521-.831 1.221-.831 1.97 0 1.292.879 2.393 2.138 2.676 1.559.35 4.611 1.189 7.815 2.874-2.084 1.629-4.072 3.398-5.606 5.589zm45.775 13.242c0 .803-.653 1.456-1.456 1.456h-24.401c-.802 0-1.455-.653-1.455-1.456s.653-1.456 1.455-1.456h1.228 21.945 1.228c.803 0 1.456.653 1.456 1.456zm-22.527-3.456c.748-.755 1.719-1.574 2.823-2.374h12.096c1.104.799 2.075 1.619 2.823 2.374zm15.089-4.373h-12.43c-5.902-1.889-10.903-6.102-14.562-9.185-1.845-1.554-3.301-2.781-4.509-3.433-3.517-1.9-6.901-2.825-8.605-3.208-.34-.076-.577-.375-.577-.725 0-.205.08-.396.226-.538.143-.139.344-.203.529-.208 1.813.048 4.58.291 7.464 1.181 1.705.525 3.273 1.359 4.79 2.165 2.22 1.18 4.317 2.294 6.638 2.368 2.522.077 4.211-.794 5.986-1.72l.532-.275h17.331c2.979 1.555 4.683 3.838 4.683 6.29.001 3.06-2.868 5.844-7.496 7.288zm17.895-15.397c-.17 2.177-1.625 4.653-3.797 6.464-1.173.978-2.592 1.763-3.844 2.456-.306.169-.601.334-.889.499.083-.43.132-.866.132-1.309 0-1.342-.38-2.627-1.068-3.814.034-.858.258-3.998 1.736-6.203.861-1.285 2.29-2.112 3.821-2.212 1.229-.083 2.332.326 3.024 1.114.849.969.95 2.168.885 3.005z"/></g></g></g></g></svg>