<svg id="Layer_1" enable-background="new 0 0 128 128" height="512" viewBox="0 0 128 128" width="512" xmlns="http://www.w3.org/2000/svg"><g><g><path d="m96.258 60.154c-2.872-4.164-7.914-6.571-13.077-7.958 1.185-1.891 2.068-3.984 2.578-6.223 4.739-4.725 7.662-11.135 7.662-18.19 0-13.233-10.764-21.783-27.421-21.783s-27.42 8.55-27.42 21.782c0 7.055 2.922 13.465 7.661 18.19.51 2.24 1.394 4.334 2.579 6.225-5.166 1.387-10.206 3.794-13.077 7.957-3.146 4.562-3.733 9.98-1.609 14.868 1.57 3.613 4.412 6.54 7.9 8.313-1.098 4.062-1.778 9.947.153 16.952 4.404 15.981 25.381 25.244 26.272 25.63.128.056.263.083.397.083.27 0 .535-.109.728-.314.289-.306.355-.761.166-1.137-.04-.08-3.967-8.04.165-13.941 2.006-2.866 4.991-5.052 7.878-7.166 3.042-2.228 6.188-4.531 8.154-7.63 2.895-4.562 3.467-8.835 3.246-12.112 3.84-1.719 6.99-4.802 8.675-8.679 2.122-4.887 1.536-10.306-1.61-14.867z" fill="#e6e7e8"/></g><g><path d="m91.434 56.722c-2.954-4.282-8.438-6.616-13.885-7.885-3.508 4.791-9.157 7.915-15.549 7.915-6.393 0-12.042-3.124-15.549-7.915-5.447 1.269-10.931 3.603-13.885 7.885-5.921 8.583-1.378 18.469 6.67 22.072-1.181 3.935-2.081 9.987-.085 17.228 4.326 15.704 25.705 24.978 25.705 24.978s-4.299-8.485.238-14.966c4.255-6.077 12.321-8.95 16.007-14.757 2.958-4.66 3.354-9.021 3.016-12.208 8.448-3.35 13.395-13.536 7.317-22.347z" fill="#6dc9f7"/><g><path d="m80.857 41.479c4.676-4.56 7.564-10.805 7.564-17.697-.001-13.959-11.829-20.782-26.421-20.782s-26.421 6.823-26.421 20.782c0 6.892 2.887 13.137 7.564 17.697-.273-1.293-.423-2.632-.423-4.007v-4.48l16.196-11.461c-.38-.88-.603-1.93-.603-3.06 0-3.089 1.651-5.594 3.687-5.594s3.687 2.504 3.687 5.594c0 1.13-.223 2.18-.603 3.06l16.196 11.461v4.48c0 1.375-.15 2.714-.423 4.007z" fill="#fa759e"/><g><path d="m62 6c14.062 0 25.553 6.339 26.37 19.292.031-.5.051-1.002.051-1.51-.001-13.959-11.829-20.782-26.421-20.782s-26.42 6.823-26.42 20.782c0 .507.02 1.01.051 1.51.816-12.953 12.307-19.292 26.369-19.292z" fill="#fff"/></g><path d="m65.084 21.531c-.659 1.525-1.793 2.534-3.084 2.534s-2.426-1.009-3.084-2.534l-16.196 11.461v4.48c0 10.648 8.632 19.28 19.28 19.28 10.648 0 19.28-8.632 19.28-19.28v-4.48z" fill="#fff"/><g><path d="m62 12.878c-2.036 0-3.687 2.504-3.687 5.594s1.651 5.594 3.687 5.594 3.687-2.504 3.687-5.594-1.651-5.594-3.687-5.594z" fill="#0089ef"/><g fill="#3a2c60"><path d="m40.114 95.756c-.553-2.006-.909-4.045-1.058-6.061-.041-.551-.525-.975-1.071-.923-.551.041-.964.52-.923 1.071.158 2.145.536 4.313 1.124 6.444.122.444.524.735.963.735.088 0 .177-.012.266-.037.533-.146.846-.697.699-1.229z"/><path d="m92.257 56.154c-2.872-4.164-7.914-6.57-13.077-7.957 1.186-1.892 2.07-3.987 2.58-6.228 4.738-4.725 7.66-11.132 7.66-18.186 0-13.233-10.763-21.783-27.42-21.783s-27.42 8.55-27.42 21.782c0 7.054 2.922 13.462 7.66 18.186.51 2.242 1.395 4.337 2.581 6.23-5.167 1.386-10.207 3.792-13.079 7.955-3.146 4.562-3.733 9.98-1.609 14.868 1.572 3.617 4.418 6.546 7.911 8.319-.442 1.643-.82 3.57-.983 5.77-.041.551.372 1.03.923 1.071.546.04 1.03-.373 1.071-.923.143-1.927.467-3.636.849-5.111 1.09.401 2.225.699 3.393.872 9.029 1.338 16.393-3.917 18.703-5.804 2.054 1.678 8.11 6.021 15.772 6.021.954 0 1.932-.067 2.931-.215.85-.126 1.68-.322 2.491-.57.089 2.855-.507 6.462-2.937 10.291-1.764 2.779-4.622 4.872-7.646 7.087-3.019 2.21-6.14 4.496-8.336 7.632-3.321 4.744-2.306 10.359-1.29 13.519-4.871-2.515-16.284-9.218-21.227-19.002-.25-.493-.85-.692-1.344-.441-.493.249-.69.851-.441 1.344 6.663 13.188 23.761 20.724 24.485 21.038.128.056.263.083.397.083.27 0 .535-.109.728-.314.289-.306.355-.761.166-1.137-.04-.08-3.967-8.04.165-13.941 2.006-2.866 4.992-5.052 7.879-7.167 3.042-2.227 6.187-4.53 8.153-7.629 2.896-4.564 3.465-8.833 3.243-12.11 3.842-1.719 6.993-4.802 8.678-8.68 2.124-4.89 1.537-10.309-1.61-14.87zm-10.4-23.978-15.567-11.016c.253-.818.396-1.725.396-2.688 0-3.697-2.059-6.594-4.687-6.594-1.764 0-3.268 1.308-4.068 3.284l-11.024-7.998c3.242-1.609 6.972-2.549 10.78-2.942.02.017.031.04.052.055l29.619 20.782c-.275 5.008-2.136 9.613-5.127 13.369.015-.319.048-.633.048-.956v-4.48c.001-.325-.157-.629-.422-.816zm-22.544-13.704c0-2.49 1.23-4.594 2.687-4.594s2.687 2.104 2.687 4.594-1.23 4.593-2.687 4.593-2.687-2.104-2.687-4.593zm28.075 4.164-26.54-18.621c.385-.01.769-.015 1.152-.015 11.96 0 24.714 4.926 25.388 18.636zm-42.408-14.398 6.352 4.608-14.723 9.878c.311-6.857 3.633-11.526 8.371-14.486zm-8.336 16.872 16.413-11.013 4.337 3.147c-.051.397-.081.806-.081 1.228 0 .964.143 1.871.396 2.688l-15.567 11.016c-.265.188-.422.492-.422.816v4.48c0 .323.033.637.048.956-2.98-3.743-4.839-8.33-5.124-13.318zm7.076 8.4 14.851-10.51c.849 1.275 2.06 2.065 3.428 2.065s2.579-.79 3.428-2.065l14.853 10.51v3.962c0 8.746-6.177 16.069-14.396 17.855l.589-2.443-1.431-1.19-3.042.952-2.855-.952-1.618 1.19.635 2.455c-8.242-1.769-14.442-9.104-14.442-17.867zm48.312 36.715c-2.033 4.678-6.486 8.057-11.622 8.817-8.072 1.193-14.72-3.423-16.977-5.24 1.518-1.61 5.551-5.457 10.668-6.912.531-.151.839-.704.688-1.235s-.704-.839-1.235-.688c-3.536 1.006-6.546 2.995-8.708 4.775-1.227-1.316-6.206-5.961-14.41-4.804-.547.077-.928.583-.851 1.129.077.547.59.932 1.129.851 7.225-1.019 11.577 3.023 12.628 4.142-1.16 1.086-1.873 1.915-2.061 2.14-.976.879-8.396 7.221-17.691 5.842-5.136-.761-9.589-4.139-11.622-8.817-1.87-4.302-1.365-8.896 1.421-12.935 2.672-3.873 7.624-6.074 12.671-7.321 3.071 3.909 7.54 6.653 12.651 7.492l.816 3.155 1.119-1.186 1.354 2.38 1.614-2.38 1.034 1.019.724-3.001c5.077-.855 9.513-3.592 12.568-7.48 5.044 1.247 9.998 3.448 12.671 7.322 2.786 4.039 3.291 8.632 1.421 12.935z"/><path d="m53.494 34.286c-1.065 0-1.928.863-1.928 1.928s.863 1.928 1.928 1.928 1.928-.863 1.928-1.928-.863-1.928-1.928-1.928z"/><path d="m70.506 34.286c-1.065 0-1.928.863-1.928 1.928s.863 1.928 1.928 1.928 1.928-.863 1.928-1.928-.864-1.928-1.928-1.928z"/><path d="m62 44.368c1.761 0 3.193-1.432 3.193-3.193v-1.285c0-.552-.448-1-1-1s-1 .448-1 1v1.285c0 .658-.535 1.193-1.193 1.193s-1.192-.535-1.192-1.193v-1.285c0-.552-.448-1-1-1s-1 .448-1 1v1.285c-.001 1.761 1.432 3.193 3.192 3.193z"/><path d="m69.183 33.493c.042 0 .083-.002.125-.008l3.775-.472c.548-.068.937-.568.868-1.116-.068-.548-.575-.937-1.116-.868l-3.775.472c-.548.068-.937.568-.868 1.116.064.506.495.876.991.876z"/><path d="m50.915 33.013 3.775.472c.042.005.084.008.125.008.497 0 .928-.37.991-.876.069-.548-.32-1.048-.868-1.116l-3.775-.472c-.543-.069-1.048.32-1.116.868-.069.547.32 1.047.868 1.116z"/><path d="m59.156 49.138h5.687c.552 0 1-.448 1-1s-.448-1-1-1h-5.687c-.552 0-1 .448-1 1s.448 1 1 1z"/></g></g></g></g></g></svg>